<?xml version="1.0" encoding="UTF-8" standalone="no"?>
<!-- Generator: Adobe Illustrator 18.1.1, SVG Export Plug-In . SVG Version: 6.00 Build 0)  -->

<svg
   xmlns:dc="http://purl.org/dc/elements/1.1/"
   xmlns:cc="http://creativecommons.org/ns#"
   xmlns:rdf="http://www.w3.org/1999/02/22-rdf-syntax-ns#"
   xmlns:svg="http://www.w3.org/2000/svg"
   xmlns="http://www.w3.org/2000/svg"
   xmlns:sodipodi="http://sodipodi.sourceforge.net/DTD/sodipodi-0.dtd"
   xmlns:inkscape="http://www.inkscape.org/namespaces/inkscape"
   version="1.1"
   id="Calque_1"
   x="0px"
   y="0px"
   viewBox="-250000 0 0 500"
   enable-background="new 0 0 500 500"
   xml:space="preserve"
   inkscape:version="0.48.5 r10040"
   width="616.05621"
   height="155.33388"
   sodipodi:docname="logo-chill-sans-slogan_white.svg"
   inkscape:export-filename="/Users/marcu/Projects/Chill/vendor/chill-project/main/Resources/public/img/logo-chill-sans-slogan_white.png"
   inkscape:export-xdpi="98.668007"
   inkscape:export-ydpi="98.668007"><metadata
     id="metadata63"><rdf:RDF><cc:Work
         rdf:about=""><dc:format>image/svg+xml</dc:format><dc:type
           rdf:resource="http://purl.org/dc/dcmitype/StillImage" /><dc:title></dc:title></cc:Work></rdf:RDF></metadata><defs
     id="defs61" /><sodipodi:namedview
     pagecolor="white"
     bordercolor="#666666"
     borderopacity="1"
     objecttolerance="10"
     gridtolerance="10"
     guidetolerance="10"
     inkscape:pageopacity="0"
     inkscape:pageshadow="2"
     inkscape:window-width="1280"
     inkscape:window-height="755"
     id="namedview59"
     showgrid="false"
     inkscape:zoom="1.4142136"
     inkscape:cx="58.126943"
     inkscape:cy="64.038765"
     inkscape:window-x="59"
     inkscape:window-y="21"
     inkscape:window-maximized="0"
     inkscape:current-layer="Calque_1"
     fit-margin-top="20"
     fit-margin-left="20"
     fit-margin-right="20"
     fit-margin-bottom="20"
     showguides="true"
     inkscape:guide-bbox="true"><sodipodi:guide
       orientation="0,1"
       position="5,133.60875"
       id="guide3010" /><sodipodi:guide
       orientation="0,1"
       position="14,21.858753"
       id="guide3012" /></sodipodi:namedview><text
     style="font-size:157.15487670999999636px;line-height:125%;fill:#ffffff;font-family:OpenSans-Extrabold"
     id="text7"
     font-size="112.7254"
     x="144.08736"
     y="133.79916"
     sodipodi:linespacing="125%"><tspan
       style="font-size:157.15487670999999636px;font-style:normal;font-variant:normal;font-weight:800;font-stretch:normal;text-align:start;line-height:125%;writing-mode:lr-tb;text-anchor:start;fill:#ffffff;fill-opacity:1;font-family:Open Sans;-inkscape-font-specification:Open Sans Ultra-Bold"
       id="tspan3071">CHILL</tspan></text>
<g
     id="g9"
     transform="translate(7.5,-173.12681)"><path
       style="fill:#edc74b"
       inkscape:connector-curvature="0"
       id="path11"
       d="m 68.3,216.4 c -5.5,0 -10,4.5 -10.1,10 0,0 0,0 0,0 6.2,6.2 10.1,14.8 10.1,24.3 l 0,0 c 0,0 0,0 0,0 l 0,0 c 0,-9.5 3.8,-18 10,-24.3 0,0 0,0 0,0 0.1,-5.5 -4.4,-10 -10,-10" /><path
       style="fill:#f1d275"
       inkscape:connector-curvature="0"
       id="path13"
       d="m 68.3,194.9 c -5.6,0 -10.1,4.5 -10.1,10.1 0,5.6 4.5,10.1 10.1,10.1 5.6,0 10.1,-4.5 10.1,-10.1 0,-5.6 -4.5,-10.1 -10.1,-10.1" /><path
       style="fill:#c9b99e"
       inkscape:connector-curvature="0"
       id="path15"
       d="m 68.3,250.7 0,0 c 0,9.5 -3.8,18 -10,24.3 0,0 0,0 0,0 0,5.5 4.5,10 10.1,10 5.5,0 10,-4.5 10.1,-10 0,0 0,0 0,0 -6.4,-6.2 -10.2,-14.8 -10.2,-24.3 l 0,0 c 0,0 0,0 0,0" /><path
       style="fill:#d3c7b1"
       inkscape:connector-curvature="0"
       id="path17"
       d="m 68.3,286.4 c -5.6,0 -10.1,4.5 -10.1,10.1 0,5.6 4.5,10.1 10.1,10.1 5.6,0 10.1,-4.5 10.1,-10.1 0,-5.6 -4.5,-10.1 -10.1,-10.1" /><path
       style="fill:#333333"
       inkscape:connector-curvature="0"
       id="path19"
       d="m 44,240.7 c -5.6,0 -10,4.5 -10,10.1 0,5.5 4.5,10 10,10.1 0,0 0,0 0,0 6.2,-6.2 14.8,-10.1 24.3,-10.1 l 0,0 0,0 c 0,0 0,0 0,0 0,0 0,0 0,0 l 0,0 c -9.5,-0.1 -18,-3.9 -24.3,-10.1 0.1,0 0,0 0,0" /><path
       style="fill:#333333"
       inkscape:connector-curvature="0"
       id="path21"
       d="m 22.6,240.7 c -5.6,0 -10.1,4.5 -10.1,10.1 0,5.6 4.5,10.1 10.1,10.1 5.6,0 10.1,-4.5 10.1,-10.1 -0.1,-5.6 -4.6,-10.1 -10.1,-10.1" /><path
       style="fill:#de4849"
       inkscape:connector-curvature="0"
       id="path23"
       d="m 92.6,240.7 c 0,0 0,0 0,0 -6.2,6.2 -14.8,10.1 -24.3,10.1 0,0 0,0 0,0 0,0 0,0 0,0 l 0,0 c 9.5,0 18,3.8 24.3,10 0,0 0,0 0,0 5.5,0 10,-4.5 10,-10.1 0,-5.5 -4.5,-10 -10,-10" /><path
       style="fill:#e57469"
       inkscape:connector-curvature="0"
       id="path25"
       d="m 114.1,240.7 c -5.6,0 -10.1,4.5 -10.1,10.1 0,5.6 4.5,10.1 10.1,10.1 5.6,0 10.1,-4.5 10.1,-10.1 -0.1,-5.6 -4.6,-10.1 -10.1,-10.1" /><path
       style="fill:#43b09b"
       inkscape:connector-curvature="0"
       id="path27"
       d="m 51.2,223.5 c -2.6,0 -5.2,1 -7.1,3 -3.9,3.9 -3.9,10.3 0,14.2 0,0 0,0 0,0 8.8,0 17.6,3.3 24.3,10.1 l 0,0 c -6.7,-6.7 -10,-15.5 -10.1,-24.2 0,0 0,0 0,0 -2,-2.1 -4.6,-3.1 -7.1,-3.1" /><path
       style="fill:#3f8a2e"
       inkscape:connector-curvature="0"
       id="path29"
       d="m 58.3,226.4 c 0,0 0,0.1 0,0 0,8.8 3.4,17.6 10.1,24.3 l 0,0 c -0.1,-9.5 -3.9,-18 -10.1,-24.3 0,0 0,0 0,0" /><path
       style="fill:#333333"
       inkscape:connector-curvature="0"
       id="path31"
       d="m 44,240.7 c 0,0 0,0 0,0 0,0 0.1,0 0,0 6.2,6.2 14.8,10 24.3,10.1 C 61.6,244 52.8,240.7 44,240.7" /><path
       style="fill:#79c0af"
       inkscape:connector-curvature="0"
       id="path33"
       d="m 36,208.3 c -2.6,0 -5.1,1 -7.1,2.9 -3.9,3.9 -3.9,10.3 0,14.2 2,2 4.5,2.9 7.1,2.9 2.6,0 5.1,-1 7.1,-2.9 3.9,-3.9 3.9,-10.3 0,-14.2 -2,-1.9 -4.6,-2.9 -7.1,-2.9" /><path
       style="fill:#ebebeb"
       inkscape:connector-curvature="0"
       id="path35"
       d="m 68.3,250.7 c 6.7,6.7 10.1,15.5 10.1,24.2 0,0 0,0 0,0 2,1.9 4.5,2.9 7.1,2.9 2.6,0 5.2,-1 7.1,-3 3.9,-3.9 3.9,-10.3 0,-14.2 0,0 0,0 0,0 -8.8,0.2 -17.6,-3.2 -24.3,-9.9 l 0,0" /><path
       style="fill:#baab92"
       inkscape:connector-curvature="0"
       id="path37"
       d="m 68.3,250.7 c 0,9.5 3.8,18.1 10.1,24.3 0,0 0,0 0,0 0,0 0,0 0,0 0,-8.8 -3.4,-17.6 -10.1,-24.3 l 0,0" /><path
       style="fill:#cd4344"
       inkscape:connector-curvature="0"
       id="path39"
       d="m 68.3,250.7 c 6.7,6.7 15.5,10.1 24.3,10.1 0,0 0,0 0,0 0,0 0,0 0,0 -6.2,-6.2 -14.8,-10.1 -24.3,-10.1" /><path
       style="fill:#efefef"
       inkscape:connector-curvature="0"
       id="path41"
       d="m 100.7,273 c -2.6,0 -5.1,1 -7.1,2.9 -3.9,3.9 -3.9,10.3 0,14.2 2,2 4.5,2.9 7.1,2.9 2.6,0 5.1,-1 7.1,-2.9 3.9,-3.9 3.9,-10.3 0,-14.2 -2,-1.9 -4.6,-2.9 -7.1,-2.9" /><path
       style="fill:#d50b51"
       inkscape:connector-curvature="0"
       id="path43"
       d="m 68.3,250.7 c -6.7,6.7 -15.5,10.1 -24.2,10.1 0,0 0,0 0,0 -3.9,3.9 -3.9,10.3 0,14.2 2,2 4.5,2.9 7.1,2.9 2.6,0 5.1,-1 7.1,-2.9 0,0 0,0 0,0 0,-8.8 3.3,-17.6 10,-24.3 l 0,0" /><path
       style="fill:#a90833"
       inkscape:connector-curvature="0"
       id="path45"
       d="m 68.3,250.7 c -6.7,6.7 -10.1,15.5 -10.1,24.3 0,0 0,0 0,0 0,0 0,0 0,0 6.3,-6.2 10.1,-14.8 10.1,-24.3" /><path
       style="fill:#333333"
       inkscape:connector-curvature="0"
       id="path47"
       d="m 68.3,250.7 c -9.5,0 -18,3.8 -24.3,10.1 0,0 0,0 0,0 0,0 0,0 0,0 8.8,0 17.6,-3.4 24.3,-10.1 0,0 0,0 0,0" /><path
       style="fill:#dc516d"
       inkscape:connector-curvature="0"
       id="path49"
       d="m 36,273 c -2.6,0 -5.1,1 -7.1,2.9 -3.9,3.9 -3.9,10.3 0,14.2 2,2 4.5,2.9 7.1,2.9 2.6,0 5.1,-1 7.1,-2.9 3.9,-3.9 3.9,-10.3 0,-14.2 C 41.1,274 38.5,273 36,273" /><path
       style="fill:#e27a3e"
       inkscape:connector-curvature="0"
       id="path51"
       d="m 85.5,223.5 c -2.6,0 -5.1,1 -7.1,2.9 0,0 0,0 0,0 0,8.8 -3.4,17.6 -10.1,24.3 l 0,0 c 6.7,-6.7 15.5,-10.1 24.2,-10.1 0,0 0,0 0,0 3.9,-3.9 3.9,-10.3 0,-14.2 -1.9,-1.9 -4.5,-2.9 -7,-2.9" /><path
       style="fill:#d36012"
       inkscape:connector-curvature="0"
       id="path53"
       d="m 78.4,226.4 c 0,0 0,0.1 0,0 -6.2,6.2 -10.1,14.8 -10.1,24.3 6.7,-6.7 10.1,-15.5 10.1,-24.3 0,0 0,0 0,0" /><path
       style="fill:#c62212"
       inkscape:connector-curvature="0"
       id="path55"
       d="m 92.6,240.7 c -8.8,0 -17.5,3.4 -24.2,10.1 0,0 0,0 0,0 9.4,-0.1 18,-3.9 24.2,-10.1 0,0 0,0 0,0 0,0 0,0 0,0" /><path
       style="fill:#e89463"
       inkscape:connector-curvature="0"
       id="path57"
       d="m 100.7,208.3 c -2.6,0 -5.1,1 -7.1,2.9 -3.9,3.9 -3.9,10.3 0,14.2 2,2 4.5,2.9 7.1,2.9 2.6,0 5.1,-1 7.1,-2.9 3.9,-3.9 3.9,-10.3 0,-14.2 -2,-1.9 -4.6,-2.9 -7.1,-2.9" /></g></svg>